<?xml version="1.0" encoding="UTF-8" standalone="no"?>
<svg
   fill="#000000"
   viewBox="0 0 68 58"
   width="68"
   height="58"
   version="1.1"
   id="svg13394"
   xmlns="http://www.w3.org/2000/svg"
   xmlns:svg="http://www.w3.org/2000/svg">
  <defs
     id="defs13398" />
  <path
     d="M 9.25,7.25 A 0.750075,0.750075 0 0 0 8.5,8 v 7.5 a 0.750075,0.750075 0 0 0 0.75,0.75 h 49.5 A 0.750075,0.750075 0 0 0 59.5,15.5 V 8 A 0.750075,0.750075 0 0 0 58.75,7.25 Z M 10,8.75 h 48 v 6 H 10 v -1.5 h 41.625 a 0.3750375,0.3750375 0 1 0 0,-0.75 H 10 Z m 43.875,3.75 a 0.3750375,0.3750375 0 1 0 0,0.75 h 1.5 a 0.3750375,0.3750375 0 1 0 0,-0.75 z M 9.25,24.5 A 0.750075,0.750075 0 0 0 8.5,25.25 v 7.5 a 0.750075,0.750075 0 0 0 0.75,0.75 h 49.5 a 0.750075,0.750075 0 0 0 0.75,-0.75 v -7.5 A 0.750075,0.750075 0 0 0 58.75,24.5 Z M 10,26 h 48 v 6 H 10 Z m 3.375,3.75 a 0.3750375,0.3750375 0 1 0 0,0.75 h 33.75 a 0.3750375,0.3750375 0 1 0 0,-0.75 z m 36,0 a 0.3750375,0.3750375 0 1 0 0,0.75 h 2.25 a 0.3750375,0.3750375 0 1 0 0,-0.75 z m 4.5,0 a 0.3750375,0.3750375 0 1 0 0,0.75 h 1.5 a 0.3750375,0.3750375 0 1 0 0,-0.75 z M 9.25,41.75 A 0.750075,0.750075 0 0 0 8.5,42.5 V 50 a 0.750075,0.750075 0 0 0 0.75,0.75 h 49.5 A 0.750075,0.750075 0 0 0 59.5,50 V 42.5 A 0.750075,0.750075 0 0 0 58.75,41.75 Z M 10,43.25 H 58 V 47 H 16.375 a 0.3750375,0.3750375 0 1 0 0,0.75 H 58 v 1.5 H 10 Z M 12.625,47 a 0.3750375,0.3750375 0 1 0 0,0.75 h 1.5 a 0.3750375,0.3750375 0 1 0 0,-0.75 z"
     id="path13392"
     style="stroke-width:0.75" />
</svg>
