<?xml version="1.0" encoding="UTF-8" standalone="no"?>
<!-- Generator: Adobe Illustrator 17.1.0, SVG Export Plug-In . SVG Version: 6.00 Build 0)  -->

<svg
   version="1.1"
   id="Capa_1"
   x="0px"
   y="0px"
   viewBox="0 0 512 512"
   style="enable-background:new 0 0 512 512;"
   xml:space="preserve"
   sodipodi:docname="jewelryStore2.svg"
   inkscape:export-filename="jewelryStore.png"
   inkscape:export-xdpi="96"
   inkscape:export-ydpi="96"
   inkscape:version="1.2 (dc2aedaf03, 2022-05-15)"
   xmlns:inkscape="http://www.inkscape.org/namespaces/inkscape"
   xmlns:sodipodi="http://sodipodi.sourceforge.net/DTD/sodipodi-0.dtd"
   xmlns="http://www.w3.org/2000/svg"
   xmlns:svg="http://www.w3.org/2000/svg"><defs
   id="defs217" /><sodipodi:namedview
   id="namedview215"
   pagecolor="#ffffff"
   bordercolor="#666666"
   borderopacity="1.0"
   inkscape:showpageshadow="2"
   inkscape:pageopacity="0.0"
   inkscape:pagecheckerboard="0"
   inkscape:deskcolor="#d1d1d1"
   showgrid="false"
   inkscape:zoom="1.6191406"
   inkscape:cx="256.30881"
   inkscape:cy="256.30881"
   inkscape:window-width="1920"
   inkscape:window-height="1009"
   inkscape:window-x="-8"
   inkscape:window-y="-8"
   inkscape:window-maximized="1"
   inkscape:current-layer="Capa_1" />
<g
   id="g182"
   transform="matrix(0.09375,0,0,0.10526316,1.2352232,-0.2694438)">
	<path
   d="M 504,468 H 488 V 207.695 c 9.555,-5.542 16,-15.877 16,-27.695 V 100 C 504,86.787 493.25,76.037 480.037,76.037 H 317.985 C 310.875,48.446 285.78,28 256,28 226.22,28 201.125,48.446 194.015,76.037 H 31.963 C 18.75,76.037 8,86.787 8,100 v 80 c 0,11.818 6.445,22.153 16,27.695 V 468 H 8 c -4.418,0 -8,3.582 -8,8 0,4.418 3.582,8 8,8 h 496 c 4.418,0 8,-3.582 8,-8 0,-4.418 -3.582,-8 -8,-8 z M 472,196 c -8.822,0 -16,-7.178 -16,-16 h 32 c 0,8.822 -7.178,16 -16,16 z M 24,180 h 32 c 0,8.822 -7.178,16 -16,16 -8.822,0 -16,-7.178 -16,-16 z M 296,141.907 V 164 h -32 v -8.518 c 12.014,-1.506 22.999,-6.347 32,-13.575 z M 408,164 V 92.037 h 32 V 164 Z m -16,0 H 360 V 92.037 h 32 z m -48,0 h -32 v -40 c 0,-0.323 -0.025,-0.64 -0.062,-0.953 5.122,-9.192 8.055,-19.763 8.061,-31.01 H 344 Z m -96,0 h -32 v -22.093 c 9.001,7.228 19.986,12.069 32,13.575 z M 200.062,123.047 C 200.025,123.36 200,123.677 200,124 v 40 H 168 V 92.037 h 24.001 c 0.006,11.247 2.939,21.819 8.061,31.01 z M 152,164 H 120 V 92.037 h 32 z m -48,0 H 72 V 92.037 h 32 z m 0,16 c 0,8.822 -7.178,16 -16,16 -8.822,0 -16,-7.178 -16,-16 z m 48,0 c 0,8.822 -7.178,16 -16,16 -8.822,0 -16,-7.178 -16,-16 z m 48,0 c 0,8.822 -7.178,16 -16,16 -8.822,0 -16,-7.178 -16,-16 z m 48,0 c 0,8.822 -7.178,16 -16,16 -8.822,0 -16,-7.178 -16,-16 z m 48,0 c 0,8.822 -7.178,16 -16,16 -8.822,0 -16,-7.178 -16,-16 z m 48,0 c 0,8.822 -7.178,16 -16,16 -8.822,0 -16,-7.178 -16,-16 z m 48,0 c 0,8.822 -7.178,16 -16,16 -8.822,0 -16,-7.178 -16,-16 z m 48,0 c 0,8.822 -7.178,16 -16,16 -8.822,0 -16,-7.178 -16,-16 z m 48,-80 v 64 H 456 V 92.037 h 24.037 c 4.391,0 7.963,3.572 7.963,7.963 z M 256,44 c 26.467,0 48,21.533 48,48 0,26.467 -21.533,48 -48,48 -26.467,0 -48,-21.533 -48,-48 0,-26.467 21.533,-48 48,-48 z M 31.963,92.037 H 56 V 164 H 24 v -64 c 0,-4.391 3.572,-7.963 7.963,-7.963 z M 40,212 c 9.551,0 18.132,-4.211 24,-10.868 5.868,6.657 14.449,10.868 24,10.868 9.551,0 18.132,-4.211 24,-10.868 5.868,6.657 14.449,10.868 24,10.868 9.551,0 18.132,-4.211 24,-10.868 5.868,6.657 14.449,10.868 24,10.868 9.551,0 18.132,-4.211 24,-10.868 5.868,6.657 14.449,10.868 24,10.868 9.551,0 18.132,-4.211 24,-10.868 5.868,6.657 14.449,10.868 24,10.868 9.551,0 18.132,-4.211 24,-10.868 5.868,6.657 14.449,10.868 24,10.868 9.551,0 18.132,-4.211 24,-10.868 5.868,6.657 14.449,10.868 24,10.868 9.551,0 18.132,-4.211 24,-10.868 5.868,6.657 14.449,10.868 24,10.868 9.551,0 18.132,-4.211 24,-10.868 5.868,6.657 14.449,10.868 24,10.868 V 468 H 456 V 244.014 C 456,235.184 448.816,228 439.986,228 H 336 c -8.83,0 -16.014,7.184 -16.014,16.014 V 468 H 40 Z M 440,468 H 335.987 L 336,244 l 104,0.014 z"
   id="path172" />
	<path
   d="M 288,228 H 72 c -8.822,0 -16,7.178 -16,16 v 192 c 0,8.822 7.178,16 16,16 h 216 c 8.822,0 16,-7.178 16,-16 V 244 c 0,-8.822 -7.178,-16 -16,-16 z m 0,208 H 72 V 244 h 216 z"
   id="path174" />
	<path
   d="m 352,388.001 c 4.418,0 8,-3.582 8,-8 v -24 c 0,-4.418 -3.582,-8 -8,-8 -4.418,0 -8,3.582 -8,8 v 24 c 0,4.418 3.582,8 8,8 z"
   id="path176" />
	<path
   d="m 217.753,88.998 32,40 c 1.518,1.898 3.817,3.002 6.247,3.002 2.43,0 4.729,-1.104 6.247,-3.002 l 32,-40 c 2.546,-3.183 2.292,-7.772 -0.59,-10.654 l -16,-16 c -1.5,-1.5 -3.535,-2.343 -5.657,-2.343 h -32 c -2.122,0 -4.157,0.843 -5.657,2.343 l -16,16 c -2.882,2.882 -3.136,7.47 -0.59,10.654 z M 243.314,76 h 25.372 l 8.594,8.594 -21.28,26.6 -21.28,-26.6 z"
   id="path178" />
	<path
   d="m 88.013,324.251 c 0.005,0.164 0.01,0.327 0.025,0.49 0.011,0.12 0.03,0.236 0.046,0.354 0.019,0.138 0.037,0.276 0.063,0.413 0.024,0.128 0.056,0.253 0.086,0.379 0.03,0.125 0.06,0.25 0.096,0.373 0.037,0.126 0.081,0.25 0.124,0.374 0.042,0.121 0.084,0.241 0.132,0.361 0.048,0.12 0.102,0.236 0.156,0.353 0.055,0.118 0.109,0.237 0.17,0.353 0.06,0.114 0.125,0.225 0.19,0.336 0.065,0.112 0.13,0.223 0.202,0.332 0.074,0.113 0.153,0.221 0.232,0.33 0.073,0.1 0.145,0.201 0.223,0.298 0.091,0.114 0.188,0.222 0.286,0.331 0.058,0.065 0.109,0.133 0.17,0.197 l 84,88 c 0.003,0.003 0.006,0.006 0.009,0.009 0.031,0.032 0.064,0.061 0.095,0.093 0.053,0.054 0.11,0.103 0.164,0.155 0.241,0.231 0.497,0.449 0.769,0.649 0.035,0.026 0.067,0.054 0.102,0.079 0.031,0.022 0.061,0.046 0.093,0.068 0.015,0.01 0.03,0.018 0.045,0.028 0.203,0.139 0.413,0.271 0.631,0.392 0.058,0.032 0.119,0.058 0.178,0.088 0.067,0.035 0.135,0.067 0.202,0.1 0.112,0.054 0.22,0.113 0.335,0.162 0.129,0.056 0.263,0.099 0.395,0.148 0.076,0.028 0.15,0.059 0.227,0.085 0.031,0.01 0.061,0.024 0.092,0.034 0.009,0.003 0.018,0.007 0.027,0.01 0.004,10e-4 0.009,0.002 0.013,0.003 0.332,0.105 0.673,0.181 1.017,0.242 0.054,0.01 0.105,0.026 0.159,0.034 0.06,0.009 0.12,0.01 0.18,0.018 0.315,0.042 0.632,0.069 0.953,0.073 0.035,0 0.07,0.008 0.105,0.008 0.037,0 0.073,-0.008 0.11,-0.009 0.319,-0.005 0.636,-0.032 0.949,-0.074 0.054,-0.007 0.107,-0.006 0.16,-0.014 0.063,-0.01 0.124,-0.028 0.187,-0.039 0.339,-0.061 0.675,-0.137 1.002,-0.24 0.005,-0.001 0.009,-0.002 0.014,-0.003 0.005,-0.001 0.009,-0.004 0.014,-0.005 0.051,-0.016 0.1,-0.039 0.151,-0.057 0.067,-0.023 0.132,-0.05 0.198,-0.074 0.125,-0.047 0.252,-0.088 0.375,-0.14 0.108,-0.047 0.21,-0.102 0.316,-0.153 0.081,-0.039 0.162,-0.078 0.242,-0.12 10e-4,-10e-4 0.003,-10e-4 0.004,-0.002 0.05,-0.026 0.102,-0.047 0.151,-0.075 0.266,-0.147 0.52,-0.309 0.764,-0.482 0.047,-0.033 0.09,-0.071 0.136,-0.106 0.256,-0.191 0.499,-0.397 0.728,-0.615 0.063,-0.06 0.127,-0.116 0.189,-0.178 0.032,-0.032 0.065,-0.063 0.096,-0.095 l 83.998,-87.998 c 0.061,-0.063 0.112,-0.132 0.17,-0.197 0.097,-0.109 0.194,-0.217 0.286,-0.331 0.078,-0.097 0.15,-0.198 0.223,-0.298 0.079,-0.109 0.158,-0.217 0.232,-0.33 0.071,-0.109 0.136,-0.221 0.202,-0.332 0.065,-0.111 0.13,-0.222 0.19,-0.336 0.061,-0.116 0.115,-0.234 0.17,-0.353 0.054,-0.117 0.108,-0.233 0.156,-0.353 0.048,-0.119 0.09,-0.24 0.132,-0.361 0.043,-0.124 0.087,-0.247 0.124,-0.374 0.036,-0.124 0.066,-0.248 0.096,-0.373 0.03,-0.126 0.062,-0.251 0.086,-0.379 0.026,-0.137 0.044,-0.275 0.063,-0.413 0.016,-0.118 0.035,-0.235 0.046,-0.354 0.015,-0.163 0.02,-0.327 0.025,-0.49 0,-0.083 0.01,-0.165 0.01,-0.25 0,-0.015 -0.002,-0.029 -0.002,-0.044 -10e-4,-0.187 -0.014,-0.374 -0.028,-0.561 -0.006,-0.077 -0.006,-0.155 -0.014,-0.232 -0.026,-0.247 -0.064,-0.492 -0.112,-0.736 -0.027,-0.137 -0.066,-0.27 -0.1,-0.405 -0.032,-0.124 -0.058,-0.25 -0.096,-0.372 -0.039,-0.128 -0.089,-0.25 -0.134,-0.375 -0.043,-0.119 -0.082,-0.24 -0.131,-0.357 -0.048,-0.115 -0.105,-0.224 -0.158,-0.336 -0.058,-0.123 -0.112,-0.247 -0.177,-0.367 -0.058,-0.107 -0.124,-0.209 -0.186,-0.313 -0.071,-0.118 -0.137,-0.238 -0.214,-0.353 -0.08,-0.119 -0.169,-0.23 -0.255,-0.345 -0.07,-0.093 -0.134,-0.188 -0.208,-0.279 -0.168,-0.204 -0.344,-0.4 -0.531,-0.586 l -39.991,-39.991 c -0.362,-0.363 -0.762,-0.693 -1.197,-0.985 -0.01,-0.006 -0.018,-0.014 -0.028,-0.021 -0.136,-0.09 -0.28,-0.17 -0.423,-0.253 -0.09,-0.052 -0.177,-0.109 -0.268,-0.158 -0.1,-0.053 -0.206,-0.097 -0.308,-0.146 -0.14,-0.067 -0.28,-0.136 -0.424,-0.195 -0.015,-0.006 -0.028,-0.014 -0.043,-0.02 -0.092,-0.037 -0.186,-0.062 -0.278,-0.095 -0.142,-0.051 -0.284,-0.104 -0.429,-0.147 -0.135,-0.04 -0.272,-0.07 -0.408,-0.102 -0.117,-0.028 -0.232,-0.059 -0.35,-0.082 -0.161,-0.031 -0.322,-0.051 -0.482,-0.072 -0.097,-0.013 -0.193,-0.029 -0.29,-0.038 -0.176,-0.016 -0.352,-0.022 -0.527,-0.026 -0.069,-0.002 -0.137,-0.01 -0.206,-0.01 h -0.137 c -0.008,0 -0.016,0 -0.024,0 h -87.683 c -0.003,0 -0.006,0 -0.009,0 H 136 c -0.073,0 -0.146,0.009 -0.219,0.011 -0.171,0.005 -0.341,0.01 -0.512,0.025 -0.101,0.009 -0.201,0.026 -0.302,0.039 -0.157,0.021 -0.314,0.04 -0.471,0.07 -0.121,0.023 -0.239,0.055 -0.359,0.084 -0.134,0.032 -0.268,0.061 -0.401,0.101 -0.146,0.043 -0.288,0.096 -0.431,0.148 -0.092,0.033 -0.185,0.058 -0.277,0.095 -0.015,0.006 -0.028,0.014 -0.043,0.02 -0.144,0.059 -0.283,0.128 -0.424,0.195 -0.103,0.049 -0.209,0.093 -0.308,0.146 -0.092,0.049 -0.178,0.106 -0.268,0.158 -0.142,0.083 -0.287,0.163 -0.423,0.253 -0.01,0.006 -0.019,0.014 -0.028,0.021 -0.435,0.292 -0.835,0.622 -1.197,0.985 L 90.346,318.34 c -0.187,0.186 -0.364,0.382 -0.531,0.586 -0.074,0.09 -0.139,0.186 -0.208,0.279 -0.086,0.114 -0.175,0.226 -0.255,0.345 -0.077,0.115 -0.144,0.235 -0.214,0.353 -0.062,0.104 -0.129,0.206 -0.186,0.313 -0.065,0.12 -0.119,0.245 -0.177,0.367 -0.053,0.112 -0.11,0.221 -0.158,0.336 -0.049,0.118 -0.088,0.238 -0.131,0.357 -0.045,0.125 -0.095,0.247 -0.134,0.375 -0.038,0.123 -0.064,0.248 -0.096,0.372 -0.034,0.135 -0.073,0.268 -0.1,0.405 -0.049,0.244 -0.086,0.489 -0.112,0.736 -0.008,0.076 -0.008,0.155 -0.014,0.232 -0.014,0.187 -0.027,0.374 -0.028,0.561 0,0.015 -0.002,0.029 -0.002,0.044 0,0.084 0.01,0.166 0.013,0.25 z m 45.065,-26.015 7.106,17.764 h -24.87 z M 244.686,316 h -24.87 l 7.106,-17.764 z M 197.06,332 180.001,385.618 162.941,332 Z M 167.366,316 180.001,297.952 192.635,316 Z m 46.485,16 h 31.453 l -47.178,49.425 z M 206.068,307.29 195.366,292 h 16.818 z M 153.932,307.291 147.816,292 h 16.821 z M 146.15,332 161.877,381.428 114.696,332 Z"
   id="path180" />
</g>
<g
   id="g184"
   transform="matrix(0.09375,0,0,0.10526316,0,25.052631)">
</g>
<g
   id="g186"
   transform="matrix(0.09375,0,0,0.10526316,0,25.052631)">
</g>
<g
   id="g188"
   transform="matrix(0.09375,0,0,0.10526316,0,25.052631)">
</g>
<g
   id="g190"
   transform="matrix(0.09375,0,0,0.10526316,0,25.052631)">
</g>
<g
   id="g192"
   transform="matrix(0.09375,0,0,0.10526316,0,25.052631)">
</g>
<g
   id="g194"
   transform="matrix(0.09375,0,0,0.10526316,0,25.052631)">
</g>
<g
   id="g196"
   transform="matrix(0.09375,0,0,0.10526316,0,25.052631)">
</g>
<g
   id="g198"
   transform="matrix(0.09375,0,0,0.10526316,0,25.052631)">
</g>
<g
   id="g200"
   transform="matrix(0.09375,0,0,0.10526316,0,25.052631)">
</g>
<g
   id="g202"
   transform="matrix(0.09375,0,0,0.10526316,0,25.052631)">
</g>
<g
   id="g204"
   transform="matrix(0.09375,0,0,0.10526316,0,25.052631)">
</g>
<g
   id="g206"
   transform="matrix(0.09375,0,0,0.10526316,0,25.052631)">
</g>
<g
   id="g208"
   transform="matrix(0.09375,0,0,0.10526316,0,25.052631)">
</g>
<g
   id="g210"
   transform="matrix(0.09375,0,0,0.10526316,0,25.052631)">
</g>
<g
   id="g212"
   transform="matrix(0.09375,0,0,0.10526316,0,25.052631)">
</g>
</svg>
