<?xml version="1.0" encoding="UTF-8" standalone="no"?>
<!-- Created with Inkscape (http://www.inkscape.org/) -->

<svg
   width="210mm"
   height="297mm"
   viewBox="0 0 210 297"
   version="1.1"
   id="svg283"
   xml:space="preserve"
   inkscape:version="1.2 (dc2aedaf03, 2022-05-15)"
   sodipodi:docname="batGuy.svg"
   xmlns:inkscape="http://www.inkscape.org/namespaces/inkscape"
   xmlns:sodipodi="http://sodipodi.sourceforge.net/DTD/sodipodi-0.dtd"
   xmlns="http://www.w3.org/2000/svg"
   xmlns:svg="http://www.w3.org/2000/svg"><sodipodi:namedview
     id="namedview285"
     pagecolor="#ffffff"
     bordercolor="#666666"
     borderopacity="1.0"
     inkscape:showpageshadow="2"
     inkscape:pageopacity="0.0"
     inkscape:pagecheckerboard="0"
     inkscape:deskcolor="#d1d1d1"
     inkscape:document-units="mm"
     showgrid="false"
     inkscape:zoom="5.74422"
     inkscape:cx="361.49382"
     inkscape:cy="334.07495"
     inkscape:window-width="1920"
     inkscape:window-height="1009"
     inkscape:window-x="-8"
     inkscape:window-y="-8"
     inkscape:window-maximized="1"
     inkscape:current-layer="layer1" /><defs
     id="defs280" /><g
     inkscape:label="Lag 1"
     inkscape:groupmode="layer"
     id="layer1"><path
       id="myBat"
       d="m 115.22147,84.874273 c -4.50453,-4.14999 -7.64169,-6.22459 -9.41281,-6.22459 -1.31631,0 -2.93529,0.657754 -4.85749,1.973 -1.468438,1.06389 -2.936338,2.12566 -4.402398,3.18823 -1.11416,0.60748 -2.65774,1.06362 -4.63127,1.36657 -0.10213,-1.0115 -0.20346,-1.69492 -0.30374,-2.04946 0.91149,-0.45561 1.36684,-1.13877 1.36684,-2.04946 0,-0.30375 -0.1024,-0.73343 -0.30401,-1.290642 -0.20187,-0.555625 -0.30321,-1.012031 -0.30321,-1.366573 0,-0.353483 0.0754,-0.960438 0.22728,-1.821921 -1.1647,0.405871 -2.20134,1.366308 -3.11203,2.884752 -0.35507,-0.151871 -0.63368,-0.227542 -0.83556,-0.227542 l -0.45534,0.07567 c -0.96203,-1.416579 -1.97353,-2.353204 -3.03636,-2.808023 -0.0511,0.202936 -0.0378,0.519377 0.0376,0.948267 0.0762,0.430213 0.11483,0.721254 0.11483,0.872596 0,0.355335 -0.10293,0.810683 -0.30375,1.367102 -0.20293,0.557212 -0.304,0.961234 -0.304,1.214434 0,0.75962 0.35375,1.44225 1.06257,2.0492 -0.15188,0.40587 -0.22755,0.81042 -0.22755,1.21523 0,0.30295 0.0757,0.63315 0.22755,0.98637 -0.15188,0 -0.88583,-0.13838 -2.20134,-0.41725 -1.3163,-0.27781 -3.314963,-1.40467 -5.996251,-3.37767 -2.480733,-1.822449 -4.429389,-2.733145 -5.845439,-2.733145 -1.822186,0 -5.237957,2.303465 -10.247842,6.907745 -4.757207,4.35292 -7.237676,7.13528 -7.439024,8.34945 v 0.0754 c 0.758825,-0.20081 2.630752,-1.21364 5.617104,-3.03609 2.681817,-1.61898 4.680215,-2.42835 5.996252,-2.42835 0.607484,0 1.012561,0.39212 1.215496,1.17608 0.201083,0.78502 0.379413,1.53114 0.531019,2.2397 l 0.152135,0.0757 c 0.910431,-1.61873 1.897063,-2.42941 2.960159,-2.42941 1.062302,0 2.302404,2.70801 3.719512,8.12245 1.112308,-2.22621 2.201598,-3.33958 3.264429,-3.33958 0.910167,0 2.865531,4.319348 5.497873,9.733777 1.11257,-1.67031 1.772565,-4.508714 2.531655,-4.508714 0.25241,0 0.687172,0.670384 1.117382,1.226014 0.42916,0.55747 1.07447,0.91069 1.93569,1.06362 l 0.372311,-0.3761 c 0.15266,0.10213 0.304,0.33586 0.45667,0.33586 0.40401,0 0.802709,-0.21241 1.334519,-0.87148 0.53155,-0.6567 1.429539,-1.562397 1.683269,-1.562397 0.91149,0 1.399609,3.003317 2.665639,4.723107 2.58048,-5.71844 3.867962,-11.089163 4.82999,-11.089163 0.91017,0 2.62549,2.159746 3.991,4.588616 0.55668,-5.31336 1.54384,-7.97084 2.96069,-7.97084 0.80883,0 1.84653,0.9869 3.11203,2.96043 0,-0.0495 0.17753,-0.88477 0.53181,-2.50508 0.25268,-1.06257 0.70802,-1.59332 1.36578,-1.59332 1.1639,0 3.35253,0.91043 6.56696,2.73209 3.21336,1.82245 4.84478,2.73209 4.89611,2.73209 h 0.22754 c -1.31656,-2.27489 -4.09919,-5.31204 -8.35025,-9.1067 z m -28.618118,-3.12129 0.53181,-0.0754 c 0.80909,0 1.2147,0.37941 1.2147,1.1385 v 0.53155 l -0.45588,0.0757 c -0.86121,0 -1.29063,-0.48022 -1.29063,-1.44251 z m -15.636879,3.50097 c -1.67005,2.12566 -2.707481,3.84624 -3.1115,5.16175 0.100277,-1.11257 0.960438,-2.80882 2.579952,-5.08635 1.467379,-2.2262 2.706952,-3.66845 3.720571,-4.32699 0.100012,-0.0495 0.150812,-0.0246 0.150812,0.0762 0,-0.15161 -1.113366,1.24116 -3.339835,4.17539 z m 3.416565,11.31067 c 0.04974,-1.46738 0.455348,-3.69385 1.213643,-6.6802 0.809096,-3.44091 1.56845,-5.43931 2.277798,-5.99731 l 0.07567,0.2278 c -1.872721,5.11202 -3.062287,9.26095 -3.567111,12.44971 z m 5.996781,-11.84196 c -1.873779,-0.70802 -3.694906,-1.9476 -5.466292,-3.72004 -0.557212,-0.556683 -0.986631,-0.986367 -1.290373,-1.289844 -0.151871,-0.100806 -0.582083,-0.152135 -1.289843,-0.152135 -1.063096,0 -1.973263,0.2032 -2.733146,0.607218 -1.518179,0.911221 -3.770313,2.656951 -6.755342,5.237691 -2.126192,1.97406 -4.277519,3.94758 -6.453187,5.92085 6.780741,-6.6802 11.209337,-10.55106 13.284464,-11.613624 0.758561,-0.354012 1.67005,-0.531812 2.732617,-0.531812 0.607483,0 1.062566,0.05186 1.366044,0.15187 1.872191,1.973796 3.580077,3.391166 5.124714,4.251066 1.542521,0.86121 3.630347,1.51817 6.262157,1.97379 l 0.15214,0.0754 c -0.254,0.10213 -0.45614,0.15213 -0.60775,0.15213 -1.16496,-2.6e-4 -2.60668,-0.35322 -4.326203,-1.06256 z m 6.679673,16.244097 c -2.02486,-2.225937 -3.03662,-5.010147 -3.03662,-8.350247 0,-3.54172 0.53154,-5.79385 1.59358,-6.75535 l 0.0765,0.15161 c -0.86122,2.83448 -1.29037,4.75747 -1.29037,5.76924 v 2.12487 c 0,2.37993 0.88503,4.73287 2.65694,7.059877 z m 2.770251,-13.708473 -0.872661,-2.469214 h -0.53155 l -0.764088,2.480729 0.09463,-2.834936 c 0.684989,0.341382 1.561995,0.22623 1.893775,-0.08061 z m -0.190301,-3.834994 -0.45482,-0.0757 -0.0759,-0.304 c 0,-0.91123 0.42863,-1.36605 1.29037,-1.36605 l 0.53129,0.0754 v 0.30401 c 0,0.9615 -0.43048,1.41711 -1.2909,1.36631 z m 0.87313,17.543467 c 1.77165,-2.327277 2.65694,-4.680217 2.65694,-7.059877 v -2.1254 c 0,-1.01177 -0.42942,-2.93449 -1.2909,-5.76897 l 0.0765,-0.15161 c 1.06257,0.9615 1.59385,3.21336 1.59385,6.75561 2.6e-4,3.3401 -1.0115,6.12431 -3.03636,8.350247 z m 12.867738,-5.845177 c -0.55748,-3.13663 -2.04999,-6.75534 -4.478868,-10.85453 l 0.0759,-0.0757 h 0.0757 c 1.062308,1.1647 2.049198,2.82125 2.959898,4.97179 0.91149,2.15106 1.36737,3.98515 1.36737,5.50306 z m 6.52701,-3.33957 c -0.65776,-3.89599 -2.63102,-7.79277 -5.92005,-11.690086 l 0.0751,-0.07567 c 0.35427,0 0.96149,0.557216 1.82271,1.670316 2.68155,3.4417 4.0222,6.70533 4.0222,9.79143 z m 3.49197,-7.4385 c -3.5941,-3.08715 -6.47806,-4.630469 -8.65373,-4.630469 -0.35428,0 -0.63209,0.0508 -0.83502,0.151606 -3.54277,4.049183 -7.261488,6.072983 -11.158278,6.072983 l -0.60695,-0.0757 0.15213,-0.15187 c 4.60375,-0.80936 8.374068,-2.85909 11.310148,-6.149184 0.40455,-0.151606 0.88476,-0.227806 1.44171,-0.227806 1.16311,0 2.15001,0.227806 2.96095,0.683683 1.6182,0.961497 3.87059,2.758807 6.75508,5.389037 0.86043,0.81068 2.96016,2.86041 6.30132,6.14918 -2.53101,-2.42993 -5.08556,-4.83315 -7.66736,-7.21148 z"
       style="display:none;stroke-width:0.264583"
       sodipodi:nodetypes="ssccccscsccccccscscscccsccccscccscscscccscscscsccscscssccsccscccccccccccccccsccccsccccccssccsscsccccccccccccscccsscccsccccccscccccccsscccccscccss"
       inkscape:label="myBat" /></g></svg>
