<svg width="1081.281" height="48.001" viewBox="0 0 1081.281 48.001" xmlns="http://www.w3.org/2000/svg">
	<g id="svgGroup" stroke-linecap="round" fill-rule="evenodd" font-size="9pt" stroke="#000" stroke-width="0.25mm" fill="none" style="stroke:#000;stroke-width:0.25mm;fill:none">
		<path d="M 0.001 36.161 L 0.001 12.001 A 12.797 12.797 0 0 1 0.691 7.722 A 11.101 11.101 0 0 1 3.361 3.521 A 11.348 11.348 0 0 1 11.129 0.177 A 15.059 15.059 0 0 1 11.841 0.161 L 62.721 0.161 A 12.797 12.797 0 0 1 66.999 0.851 A 11.101 11.101 0 0 1 71.201 3.521 A 11.348 11.348 0 0 1 74.544 11.289 A 15.059 15.059 0 0 1 74.561 12.001 L 74.561 36.161 A 12.797 12.797 0 0 1 73.871 40.439 A 11.101 11.101 0 0 1 71.201 44.641 A 11.348 11.348 0 0 1 63.432 47.984 A 15.059 15.059 0 0 1 62.721 48.001 L 11.841 48.001 A 12.797 12.797 0 0 1 7.562 47.311 A 11.101 11.101 0 0 1 3.361 44.641 A 11.348 11.348 0 0 1 0.017 36.872 A 15.059 15.059 0 0 1 0.001 36.161 Z" id="0" vector-effect="non-scaling-stroke"/>
		<path d="M 45.761 36.161 L 45.761 11.841 A 12.797 12.797 0 0 1 46.451 7.562 A 11.101 11.101 0 0 1 49.121 3.361 A 11.348 11.348 0 0 1 56.889 0.017 A 15.059 15.059 0 0 1 57.601 0.001 L 154.241 0.001 A 12.797 12.797 0 0 1 158.519 0.691 A 11.101 11.101 0 0 1 162.721 3.361 A 11.348 11.348 0 0 1 166.064 11.129 A 15.059 15.059 0 0 1 166.081 11.841 L 166.081 36.161 A 12.797 12.797 0 0 1 165.391 40.439 A 11.101 11.101 0 0 1 162.721 44.641 A 11.348 11.348 0 0 1 154.952 47.984 A 15.059 15.059 0 0 1 154.241 48.001 L 57.601 48.001 A 12.797 12.797 0 0 1 53.322 47.311 A 11.101 11.101 0 0 1 49.121 44.641 A 11.348 11.348 0 0 1 45.777 36.872 A 15.059 15.059 0 0 1 45.761 36.161 Z" id="1" vector-effect="non-scaling-stroke"/>
		<path d="M 137.281 36.161 L 137.281 11.841 A 12.797 12.797 0 0 1 137.971 7.562 A 11.101 11.101 0 0 1 140.641 3.361 A 11.348 11.348 0 0 1 148.409 0.017 A 15.059 15.059 0 0 1 149.121 0.001 L 245.761 0.001 A 12.797 12.797 0 0 1 250.039 0.691 A 11.101 11.101 0 0 1 254.241 3.361 A 11.348 11.348 0 0 1 257.584 11.129 A 15.059 15.059 0 0 1 257.601 11.841 L 257.601 36.161 A 12.797 12.797 0 0 1 256.911 40.439 A 11.101 11.101 0 0 1 254.241 44.641 A 11.348 11.348 0 0 1 246.472 47.984 A 15.059 15.059 0 0 1 245.761 48.001 L 149.121 48.001 A 12.797 12.797 0 0 1 144.842 47.311 A 11.101 11.101 0 0 1 140.641 44.641 A 11.348 11.348 0 0 1 137.297 36.872 A 15.059 15.059 0 0 1 137.281 36.161 Z" id="2" vector-effect="non-scaling-stroke"/>
		<path d="M 228.801 36.161 L 228.801 11.841 A 12.797 12.797 0 0 1 229.491 7.562 A 11.101 11.101 0 0 1 232.161 3.361 A 11.348 11.348 0 0 1 239.929 0.017 A 15.059 15.059 0 0 1 240.641 0.001 L 337.281 0.001 A 12.797 12.797 0 0 1 341.559 0.691 A 11.101 11.101 0 0 1 345.761 3.361 A 11.348 11.348 0 0 1 349.104 11.129 A 15.059 15.059 0 0 1 349.121 11.841 L 349.121 36.161 A 12.797 12.797 0 0 1 348.431 40.439 A 11.101 11.101 0 0 1 345.761 44.641 A 11.348 11.348 0 0 1 337.992 47.984 A 15.059 15.059 0 0 1 337.281 48.001 L 240.641 48.001 A 12.797 12.797 0 0 1 236.362 47.311 A 11.101 11.101 0 0 1 232.161 44.641 A 11.348 11.348 0 0 1 228.817 36.872 A 15.059 15.059 0 0 1 228.801 36.161 Z" id="3" vector-effect="non-scaling-stroke"/>
		<path d="M 320.321 36.161 L 320.321 11.841 A 12.797 12.797 0 0 1 321.011 7.562 A 11.101 11.101 0 0 1 323.681 3.361 A 11.348 11.348 0 0 1 331.449 0.017 A 15.059 15.059 0 0 1 332.161 0.001 L 428.801 0.001 A 12.797 12.797 0 0 1 433.079 0.691 A 11.101 11.101 0 0 1 437.281 3.361 A 11.348 11.348 0 0 1 440.624 11.129 A 15.059 15.059 0 0 1 440.641 11.841 L 440.641 36.161 A 12.797 12.797 0 0 1 439.951 40.439 A 11.101 11.101 0 0 1 437.281 44.641 A 11.348 11.348 0 0 1 429.512 47.984 A 15.059 15.059 0 0 1 428.801 48.001 L 332.161 48.001 A 12.797 12.797 0 0 1 327.882 47.311 A 11.101 11.101 0 0 1 323.681 44.641 A 11.348 11.348 0 0 1 320.337 36.872 A 15.059 15.059 0 0 1 320.321 36.161 Z" id="4" vector-effect="non-scaling-stroke"/>
		<path d="M 411.841 36.161 L 411.841 11.841 A 12.797 12.797 0 0 1 412.531 7.562 A 11.101 11.101 0 0 1 415.201 3.361 A 11.348 11.348 0 0 1 422.969 0.017 A 15.059 15.059 0 0 1 423.681 0.001 L 520.321 0.001 A 12.797 12.797 0 0 1 524.599 0.691 A 11.101 11.101 0 0 1 528.801 3.361 A 11.348 11.348 0 0 1 532.144 11.129 A 15.059 15.059 0 0 1 532.161 11.841 L 532.161 36.161 A 12.797 12.797 0 0 1 531.471 40.439 A 11.101 11.101 0 0 1 528.801 44.641 A 11.348 11.348 0 0 1 521.032 47.984 A 15.059 15.059 0 0 1 520.321 48.001 L 423.681 48.001 A 12.797 12.797 0 0 1 419.402 47.311 A 11.101 11.101 0 0 1 415.201 44.641 A 11.348 11.348 0 0 1 411.857 36.872 A 15.059 15.059 0 0 1 411.841 36.161 Z" id="5" vector-effect="non-scaling-stroke"/>
		<path d="M 503.361 36.161 L 503.361 12.001 A 12.797 12.797 0 0 1 504.051 7.722 A 11.101 11.101 0 0 1 506.721 3.521 A 11.348 11.348 0 0 1 514.489 0.177 A 15.059 15.059 0 0 1 515.201 0.161 L 566.081 0.161 A 12.797 12.797 0 0 1 570.359 0.851 A 11.101 11.101 0 0 1 574.561 3.521 A 11.348 11.348 0 0 1 577.904 11.289 A 15.059 15.059 0 0 1 577.921 12.001 L 577.921 36.161 A 12.797 12.797 0 0 1 577.231 40.439 A 11.101 11.101 0 0 1 574.561 44.641 A 11.348 11.348 0 0 1 566.792 47.984 A 15.059 15.059 0 0 1 566.081 48.001 L 515.201 48.001 A 12.797 12.797 0 0 1 510.922 47.311 A 11.101 11.101 0 0 1 506.721 44.641 A 11.348 11.348 0 0 1 503.377 36.872 A 15.059 15.059 0 0 1 503.361 36.161 Z" id="6" vector-effect="non-scaling-stroke"/>
		<path d="M 549.121 36.161 L 549.121 11.841 A 12.797 12.797 0 0 1 549.811 7.562 A 11.101 11.101 0 0 1 552.481 3.361 A 11.348 11.348 0 0 1 560.249 0.017 A 15.059 15.059 0 0 1 560.961 0.001 L 657.601 0.001 A 12.797 12.797 0 0 1 661.879 0.691 A 11.101 11.101 0 0 1 666.081 3.361 A 11.348 11.348 0 0 1 669.424 11.129 A 15.059 15.059 0 0 1 669.441 11.841 L 669.441 36.161 A 12.797 12.797 0 0 1 668.751 40.439 A 11.101 11.101 0 0 1 666.081 44.641 A 11.348 11.348 0 0 1 658.312 47.984 A 15.059 15.059 0 0 1 657.601 48.001 L 560.961 48.001 A 12.797 12.797 0 0 1 556.682 47.311 A 11.101 11.101 0 0 1 552.481 44.641 A 11.348 11.348 0 0 1 549.137 36.872 A 15.059 15.059 0 0 1 549.121 36.161 Z" id="7" vector-effect="non-scaling-stroke"/>
		<path d="M 640.641 36.161 L 640.641 12.001 A 12.797 12.797 0 0 1 641.331 7.722 A 11.101 11.101 0 0 1 644.001 3.521 A 11.348 11.348 0 0 1 651.769 0.177 A 15.059 15.059 0 0 1 652.481 0.161 L 703.361 0.161 A 12.797 12.797 0 0 1 707.639 0.851 A 11.101 11.101 0 0 1 711.841 3.521 A 11.348 11.348 0 0 1 715.184 11.289 A 15.059 15.059 0 0 1 715.201 12.001 L 715.201 36.161 A 12.797 12.797 0 0 1 714.511 40.439 A 11.101 11.101 0 0 1 711.841 44.641 A 11.348 11.348 0 0 1 704.072 47.984 A 15.059 15.059 0 0 1 703.361 48.001 L 652.481 48.001 A 12.797 12.797 0 0 1 648.202 47.311 A 11.101 11.101 0 0 1 644.001 44.641 A 11.348 11.348 0 0 1 640.657 36.872 A 15.059 15.059 0 0 1 640.641 36.161 Z" id="8" vector-effect="non-scaling-stroke"/>
		<path d="M 686.401 36.161 L 686.401 11.841 A 12.797 12.797 0 0 1 687.091 7.562 A 11.101 11.101 0 0 1 689.761 3.361 A 11.348 11.348 0 0 1 697.529 0.017 A 15.059 15.059 0 0 1 698.241 0.001 L 794.881 0.001 A 12.797 12.797 0 0 1 799.159 0.691 A 11.101 11.101 0 0 1 803.361 3.361 A 11.348 11.348 0 0 1 806.704 11.129 A 15.059 15.059 0 0 1 806.721 11.841 L 806.721 36.161 A 12.797 12.797 0 0 1 806.031 40.439 A 11.101 11.101 0 0 1 803.361 44.641 A 11.348 11.348 0 0 1 795.592 47.984 A 15.059 15.059 0 0 1 794.881 48.001 L 698.241 48.001 A 12.797 12.797 0 0 1 693.962 47.311 A 11.101 11.101 0 0 1 689.761 44.641 A 11.348 11.348 0 0 1 686.417 36.872 A 15.059 15.059 0 0 1 686.401 36.161 Z" id="9" vector-effect="non-scaling-stroke"/>
		<path d="M 777.921 36.161 L 777.921 11.841 A 12.797 12.797 0 0 1 778.611 7.562 A 11.101 11.101 0 0 1 781.281 3.361 A 11.348 11.348 0 0 1 789.049 0.017 A 15.059 15.059 0 0 1 789.761 0.001 L 886.401 0.001 A 12.797 12.797 0 0 1 890.679 0.691 A 11.101 11.101 0 0 1 894.881 3.361 A 11.348 11.348 0 0 1 898.224 11.129 A 15.059 15.059 0 0 1 898.241 11.841 L 898.241 36.161 A 12.797 12.797 0 0 1 897.551 40.439 A 11.101 11.101 0 0 1 894.881 44.641 A 11.348 11.348 0 0 1 887.112 47.984 A 15.059 15.059 0 0 1 886.401 48.001 L 789.761 48.001 A 12.797 12.797 0 0 1 785.482 47.311 A 11.101 11.101 0 0 1 781.281 44.641 A 11.348 11.348 0 0 1 777.937 36.872 A 15.059 15.059 0 0 1 777.921 36.161 Z" id="10" vector-effect="non-scaling-stroke"/>
		<path d="M 869.441 36.161 L 869.441 11.841 A 12.797 12.797 0 0 1 870.131 7.562 A 11.101 11.101 0 0 1 872.801 3.361 A 11.348 11.348 0 0 1 880.569 0.017 A 15.059 15.059 0 0 1 881.281 0.001 L 977.921 0.001 A 12.797 12.797 0 0 1 982.199 0.691 A 11.101 11.101 0 0 1 986.401 3.361 A 11.348 11.348 0 0 1 989.744 11.129 A 15.059 15.059 0 0 1 989.761 11.841 L 989.761 36.161 A 12.797 12.797 0 0 1 989.071 40.439 A 11.101 11.101 0 0 1 986.401 44.641 A 11.348 11.348 0 0 1 978.632 47.984 A 15.059 15.059 0 0 1 977.921 48.001 L 881.281 48.001 A 12.797 12.797 0 0 1 877.002 47.311 A 11.101 11.101 0 0 1 872.801 44.641 A 11.348 11.348 0 0 1 869.457 36.872 A 15.059 15.059 0 0 1 869.441 36.161 Z" id="11" vector-effect="non-scaling-stroke"/>
		<path d="M 960.961 36.161 L 960.961 11.841 A 12.797 12.797 0 0 1 961.651 7.562 A 11.101 11.101 0 0 1 964.321 3.361 A 11.348 11.348 0 0 1 972.089 0.017 A 15.059 15.059 0 0 1 972.801 0.001 L 1069.441 0.001 A 12.797 12.797 0 0 1 1073.719 0.691 A 11.101 11.101 0 0 1 1077.921 3.361 A 11.348 11.348 0 0 1 1081.264 11.129 A 15.059 15.059 0 0 1 1081.281 11.841 L 1081.281 36.161 A 12.797 12.797 0 0 1 1080.591 40.439 A 11.101 11.101 0 0 1 1077.921 44.641 A 11.348 11.348 0 0 1 1070.152 47.984 A 15.059 15.059 0 0 1 1069.441 48.001 L 972.801 48.001 A 12.797 12.797 0 0 1 968.522 47.311 A 11.101 11.101 0 0 1 964.321 44.641 A 11.348 11.348 0 0 1 960.977 36.872 A 15.059 15.059 0 0 1 960.961 36.161 Z" id="12" vector-effect="non-scaling-stroke"/>
	</g>
</svg>